<svg width="14" height="12" viewBox="0 0 14 12" fill="none" xmlns="http://www.w3.org/2000/svg">
<path d="M1 6.03679C1.00001 5.85408 1.06602 5.67755 1.18584 5.53984C1.30566 5.40214 1.47118 5.31258 1.65178 5.28774L1.75437 5.28068L10.4251 5.28169L7.43777 2.29151C7.3096 2.16355 7.23157 1.99369 7.21791 1.81289C7.20425 1.63209 7.25586 1.45239 7.36334 1.30654L7.43576 1.22186C7.56355 1.09354 7.73308 1.01552 7.91346 1.00201C8.09385 0.988502 8.27306 1.04041 8.41846 1.14827L8.50294 1.22085L12.7777 5.49844L12.8411 5.56901L12.9004 5.66176L12.9215 5.69805L12.9598 5.78979L12.9899 5.91077L12.998 5.98134L13 6.04183C12.9999 6.09266 12.9945 6.14334 12.9839 6.19305L12.9608 6.27572C12.9298 6.37116 12.8799 6.45931 12.8139 6.53482L8.50395 10.8598C8.36951 10.9954 8.18881 11.075 7.9982 11.0824C7.8076 11.0899 7.62126 11.0247 7.47668 10.9C7.33211 10.7753 7.24004 10.6003 7.21901 10.4103C7.19798 10.2202 7.24955 10.0293 7.36334 9.87583L7.43677 9.79115L10.4211 6.79391L1.75437 6.79391C1.5543 6.79391 1.36242 6.71425 1.22095 6.57245C1.07948 6.43065 1 6.23733 1 6.03679Z" fill="#EB242A" stroke="#EB242A" stroke-width="0.75"/>
</svg>
